<svg width="32" height="32" viewBox="0 0 32 32" fill="none" xmlns="http://www.w3.org/2000/svg">
<ellipse cx="16" cy="5" rx="13" ry="3" fill="#591BD2"/>
<path fill-rule="evenodd" clip-rule="evenodd" d="M28.9971 5.06421C28.849 6.69142 23.0867 8 16 8C8.91329 8 3.15099 6.69142 3.00293 5.06421L4.00001 27C4.00001 28.6569 9.37259 30 16 30C22.6274 30 28 28.6569 28 27L28.9971 5.06421Z" fill="url(#paint0_linear_93_1286)"/>
<ellipse cx="16" cy="5" rx="7" ry="1" fill="url(#paint1_linear_93_1286)"/>
<path fill-rule="evenodd" clip-rule="evenodd" d="M3.25428 10.5934L3.20618 9.53503C4.29954 10.9366 9.61166 12 16 12C22.3884 12 27.7005 10.9366 28.7939 9.53503L28.7458 10.5934C27.5524 11.966 22.2995 13 16 13C9.70059 13 4.44765 11.966 3.25428 10.5934ZM3.914 25.1072L3.8673 24.0796C5.74569 25.203 10.4696 26 16 26C21.5305 26 26.2544 25.203 28.1328 24.0796L28.0861 25.1072C26.177 26.216 21.4852 27 16 27C10.5148 27 5.82309 26.216 3.914 25.1072Z" fill="url(#paint2_linear_93_1286)"/>
<path d="M18.6 14H15L12 20.7222H16.8L15 25L21 18.8889H15.6L18.6 14Z" fill="white"/>
<defs>
<linearGradient id="paint0_linear_93_1286" x1="16" y1="5.06421" x2="16" y2="30" gradientUnits="userSpaceOnUse">
<stop stop-color="#642DFF"/>
<stop offset="1" stop-color="#892DFF"/>
</linearGradient>
<linearGradient id="paint1_linear_93_1286" x1="16" y1="4" x2="16" y2="6" gradientUnits="userSpaceOnUse">
<stop stop-color="#030318"/>
<stop offset="1" stop-color="#401499"/>
</linearGradient>
<linearGradient id="paint2_linear_93_1286" x1="3.5" y1="18" x2="28.5" y2="18" gradientUnits="userSpaceOnUse">
<stop stop-color="#030318"/>
<stop offset="1" stop-color="#401499"/>
</linearGradient>
</defs>
</svg>
